<mxfile host="app.diagrams.net" modified="2024-06-27T12:39:25.163Z" agent="Mozilla/5.0 (Windows NT 10.0; Win64; x64) AppleWebKit/537.36 (KHTML, like Gecko) Chrome/126.0.0.0 Safari/537.36 Edg/126.0.0.0" etag="PuUcOq0gLmDtQD5IkEYI" version="24.2.5" type="device">
  <diagram name="PÃ¡gina-1" id="qH0CEB1lJZBk8EV9EmJM">
    <mxGraphModel dx="1242" dy="535" grid="1" gridSize="10" guides="1" tooltips="1" connect="1" arrows="1" fold="1" page="1" pageScale="1" pageWidth="827" pageHeight="1169" math="0" shadow="0">
      <root>
        <mxCell id="0" />
        <mxCell id="1" parent="0" />
        <mxCell id="N2yYSC4OEmxXG6KfeuNP-5" value="Main                   " style="swimlane;fontStyle=1;align=center;verticalAlign=top;childLayout=stackLayout;horizontal=1;startSize=26;horizontalStack=0;resizeParent=1;resizeParentMax=0;resizeLast=0;collapsible=1;marginBottom=0;whiteSpace=wrap;html=1;" vertex="1" parent="1">
          <mxGeometry x="334" y="40" width="160" height="60" as="geometry" />
        </mxCell>
        <mxCell id="N2yYSC4OEmxXG6KfeuNP-7" value="" style="line;strokeWidth=1;fillColor=none;align=left;verticalAlign=middle;spacingTop=-1;spacingLeft=3;spacingRight=3;rotatable=0;labelPosition=right;points=[];portConstraint=eastwest;strokeColor=inherit;" vertex="1" parent="N2yYSC4OEmxXG6KfeuNP-5">
          <mxGeometry y="26" width="160" height="8" as="geometry" />
        </mxCell>
        <mxCell id="N2yYSC4OEmxXG6KfeuNP-8" value="&lt;span class=&quot;hljs-operator&quot;&gt;+&lt;/span&gt; main(String[] args): void&amp;nbsp;" style="text;strokeColor=none;fillColor=none;align=left;verticalAlign=top;spacingLeft=4;spacingRight=4;overflow=hidden;rotatable=0;points=[[0,0.5],[1,0.5]];portConstraint=eastwest;whiteSpace=wrap;html=1;" vertex="1" parent="N2yYSC4OEmxXG6KfeuNP-5">
          <mxGeometry y="34" width="160" height="26" as="geometry" />
        </mxCell>
        <mxCell id="N2yYSC4OEmxXG6KfeuNP-9" value="Manipulador               " style="swimlane;fontStyle=1;align=center;verticalAlign=top;childLayout=stackLayout;horizontal=1;startSize=26;horizontalStack=0;resizeParent=1;resizeParentMax=0;resizeLast=0;collapsible=1;marginBottom=0;whiteSpace=wrap;html=1;" vertex="1" parent="1">
          <mxGeometry x="334" y="187" width="160" height="140" as="geometry" />
        </mxCell>
        <mxCell id="N2yYSC4OEmxXG6KfeuNP-10" value="&lt;span class=&quot;hljs-operator&quot;&gt;-&lt;/span&gt; proximo: Manipulador&amp;nbsp;" style="text;strokeColor=none;fillColor=none;align=left;verticalAlign=top;spacingLeft=4;spacingRight=4;overflow=hidden;rotatable=0;points=[[0,0.5],[1,0.5]];portConstraint=eastwest;whiteSpace=wrap;html=1;" vertex="1" parent="N2yYSC4OEmxXG6KfeuNP-9">
          <mxGeometry y="26" width="160" height="26" as="geometry" />
        </mxCell>
        <mxCell id="N2yYSC4OEmxXG6KfeuNP-11" value="" style="line;strokeWidth=1;fillColor=none;align=left;verticalAlign=middle;spacingTop=-1;spacingLeft=3;spacingRight=3;rotatable=0;labelPosition=right;points=[];portConstraint=eastwest;strokeColor=inherit;" vertex="1" parent="N2yYSC4OEmxXG6KfeuNP-9">
          <mxGeometry y="52" width="160" height="8" as="geometry" />
        </mxCell>
        <mxCell id="N2yYSC4OEmxXG6KfeuNP-12" value="&lt;span class=&quot;hljs-operator&quot;&gt;+&lt;/span&gt; setProximo(Manipulador proximo): void" style="text;strokeColor=none;fillColor=none;align=left;verticalAlign=top;spacingLeft=4;spacingRight=4;overflow=hidden;rotatable=0;points=[[0,0.5],[1,0.5]];portConstraint=eastwest;whiteSpace=wrap;html=1;" vertex="1" parent="N2yYSC4OEmxXG6KfeuNP-9">
          <mxGeometry y="60" width="160" height="40" as="geometry" />
        </mxCell>
        <mxCell id="N2yYSC4OEmxXG6KfeuNP-13" value="&lt;span class=&quot;hljs-operator&quot;&gt;+&lt;/span&gt; verificar(String login, String senha): &lt;span class=&quot;hljs-type&quot;&gt;boolean&lt;/span&gt;" style="text;whiteSpace=wrap;html=1;" vertex="1" parent="N2yYSC4OEmxXG6KfeuNP-9">
          <mxGeometry y="100" width="160" height="40" as="geometry" />
        </mxCell>
        <mxCell id="N2yYSC4OEmxXG6KfeuNP-14" value="ManipuladorLogin              " style="swimlane;fontStyle=1;align=center;verticalAlign=top;childLayout=stackLayout;horizontal=1;startSize=26;horizontalStack=0;resizeParent=1;resizeParentMax=0;resizeLast=0;collapsible=1;marginBottom=0;whiteSpace=wrap;html=1;" vertex="1" parent="1">
          <mxGeometry x="80" y="380" width="160" height="100" as="geometry" />
        </mxCell>
        <mxCell id="N2yYSC4OEmxXG6KfeuNP-15" value="&lt;span class=&quot;hljs-operator&quot;&gt;-&lt;/span&gt; loginsValidos: List&lt;span class=&quot;hljs-operator&quot;&gt;&amp;lt;&lt;/span&gt;String&lt;span class=&quot;hljs-operator&quot;&gt;&amp;gt;&lt;/span&gt;" style="text;strokeColor=none;fillColor=none;align=left;verticalAlign=top;spacingLeft=4;spacingRight=4;overflow=hidden;rotatable=0;points=[[0,0.5],[1,0.5]];portConstraint=eastwest;whiteSpace=wrap;html=1;" vertex="1" parent="N2yYSC4OEmxXG6KfeuNP-14">
          <mxGeometry y="26" width="160" height="26" as="geometry" />
        </mxCell>
        <mxCell id="N2yYSC4OEmxXG6KfeuNP-16" value="" style="line;strokeWidth=1;fillColor=none;align=left;verticalAlign=middle;spacingTop=-1;spacingLeft=3;spacingRight=3;rotatable=0;labelPosition=right;points=[];portConstraint=eastwest;strokeColor=inherit;" vertex="1" parent="N2yYSC4OEmxXG6KfeuNP-14">
          <mxGeometry y="52" width="160" height="8" as="geometry" />
        </mxCell>
        <mxCell id="N2yYSC4OEmxXG6KfeuNP-17" value="&lt;span class=&quot;hljs-operator&quot;&gt;+&lt;/span&gt; verificar(String login, String senha): &lt;span class=&quot;hljs-type&quot;&gt;boolean&lt;/span&gt;" style="text;strokeColor=none;fillColor=none;align=left;verticalAlign=top;spacingLeft=4;spacingRight=4;overflow=hidden;rotatable=0;points=[[0,0.5],[1,0.5]];portConstraint=eastwest;whiteSpace=wrap;html=1;" vertex="1" parent="N2yYSC4OEmxXG6KfeuNP-14">
          <mxGeometry y="60" width="160" height="40" as="geometry" />
        </mxCell>
        <mxCell id="N2yYSC4OEmxXG6KfeuNP-18" value="ManipuladorMaiuscula" style="swimlane;fontStyle=1;align=center;verticalAlign=top;childLayout=stackLayout;horizontal=1;startSize=26;horizontalStack=0;resizeParent=1;resizeParentMax=0;resizeLast=0;collapsible=1;marginBottom=0;whiteSpace=wrap;html=1;" vertex="1" parent="1">
          <mxGeometry x="160" y="530" width="160" height="74" as="geometry" />
        </mxCell>
        <mxCell id="N2yYSC4OEmxXG6KfeuNP-20" value="" style="line;strokeWidth=1;fillColor=none;align=left;verticalAlign=middle;spacingTop=-1;spacingLeft=3;spacingRight=3;rotatable=0;labelPosition=right;points=[];portConstraint=eastwest;strokeColor=inherit;" vertex="1" parent="N2yYSC4OEmxXG6KfeuNP-18">
          <mxGeometry y="26" width="160" height="8" as="geometry" />
        </mxCell>
        <mxCell id="N2yYSC4OEmxXG6KfeuNP-21" value="&lt;span class=&quot;hljs-operator&quot;&gt;+&lt;/span&gt; verificar(String login, String senha): &lt;span class=&quot;hljs-type&quot;&gt;boolean&lt;/span&gt;" style="text;strokeColor=none;fillColor=none;align=left;verticalAlign=top;spacingLeft=4;spacingRight=4;overflow=hidden;rotatable=0;points=[[0,0.5],[1,0.5]];portConstraint=eastwest;whiteSpace=wrap;html=1;" vertex="1" parent="N2yYSC4OEmxXG6KfeuNP-18">
          <mxGeometry y="34" width="160" height="40" as="geometry" />
        </mxCell>
        <mxCell id="N2yYSC4OEmxXG6KfeuNP-25" value="ManipuladorCaractereEspecial           " style="swimlane;fontStyle=1;align=center;verticalAlign=top;childLayout=stackLayout;horizontal=1;startSize=26;horizontalStack=0;resizeParent=1;resizeParentMax=0;resizeLast=0;collapsible=1;marginBottom=0;whiteSpace=wrap;html=1;" vertex="1" parent="1">
          <mxGeometry x="334" y="800" width="196" height="74" as="geometry" />
        </mxCell>
        <mxCell id="N2yYSC4OEmxXG6KfeuNP-26" value="" style="line;strokeWidth=1;fillColor=none;align=left;verticalAlign=middle;spacingTop=-1;spacingLeft=3;spacingRight=3;rotatable=0;labelPosition=right;points=[];portConstraint=eastwest;strokeColor=inherit;" vertex="1" parent="N2yYSC4OEmxXG6KfeuNP-25">
          <mxGeometry y="26" width="196" height="8" as="geometry" />
        </mxCell>
        <mxCell id="N2yYSC4OEmxXG6KfeuNP-27" value="&lt;span class=&quot;hljs-operator&quot;&gt;+&lt;/span&gt; verificar(String login, String senha): &lt;span class=&quot;hljs-type&quot;&gt;boolean&lt;/span&gt;" style="text;strokeColor=none;fillColor=none;align=left;verticalAlign=top;spacingLeft=4;spacingRight=4;overflow=hidden;rotatable=0;points=[[0,0.5],[1,0.5]];portConstraint=eastwest;whiteSpace=wrap;html=1;" vertex="1" parent="N2yYSC4OEmxXG6KfeuNP-25">
          <mxGeometry y="34" width="196" height="40" as="geometry" />
        </mxCell>
        <mxCell id="N2yYSC4OEmxXG6KfeuNP-28" value="ManipuladorNumero           " style="swimlane;fontStyle=1;align=center;verticalAlign=top;childLayout=stackLayout;horizontal=1;startSize=26;horizontalStack=0;resizeParent=1;resizeParentMax=0;resizeLast=0;collapsible=1;marginBottom=0;whiteSpace=wrap;html=1;" vertex="1" parent="1">
          <mxGeometry x="440" y="940" width="180" height="74" as="geometry" />
        </mxCell>
        <mxCell id="N2yYSC4OEmxXG6KfeuNP-29" value="" style="line;strokeWidth=1;fillColor=none;align=left;verticalAlign=middle;spacingTop=-1;spacingLeft=3;spacingRight=3;rotatable=0;labelPosition=right;points=[];portConstraint=eastwest;strokeColor=inherit;" vertex="1" parent="N2yYSC4OEmxXG6KfeuNP-28">
          <mxGeometry y="26" width="180" height="8" as="geometry" />
        </mxCell>
        <mxCell id="N2yYSC4OEmxXG6KfeuNP-30" value="&lt;span class=&quot;hljs-operator&quot;&gt;+&lt;/span&gt; verificar(String login, String senha): &lt;span class=&quot;hljs-type&quot;&gt;boolean&lt;/span&gt;" style="text;strokeColor=none;fillColor=none;align=left;verticalAlign=top;spacingLeft=4;spacingRight=4;overflow=hidden;rotatable=0;points=[[0,0.5],[1,0.5]];portConstraint=eastwest;whiteSpace=wrap;html=1;" vertex="1" parent="N2yYSC4OEmxXG6KfeuNP-28">
          <mxGeometry y="34" width="180" height="40" as="geometry" />
        </mxCell>
        <mxCell id="N2yYSC4OEmxXG6KfeuNP-31" value="ManipuladorNumeroConsecutivo         " style="swimlane;fontStyle=1;align=center;verticalAlign=top;childLayout=stackLayout;horizontal=1;startSize=26;horizontalStack=0;resizeParent=1;resizeParentMax=0;resizeLast=0;collapsible=1;marginBottom=0;whiteSpace=wrap;html=1;" vertex="1" parent="1">
          <mxGeometry x="520" y="1070" width="200" height="74" as="geometry" />
        </mxCell>
        <mxCell id="N2yYSC4OEmxXG6KfeuNP-32" value="" style="line;strokeWidth=1;fillColor=none;align=left;verticalAlign=middle;spacingTop=-1;spacingLeft=3;spacingRight=3;rotatable=0;labelPosition=right;points=[];portConstraint=eastwest;strokeColor=inherit;" vertex="1" parent="N2yYSC4OEmxXG6KfeuNP-31">
          <mxGeometry y="26" width="200" height="8" as="geometry" />
        </mxCell>
        <mxCell id="N2yYSC4OEmxXG6KfeuNP-33" value="&lt;span class=&quot;hljs-operator&quot;&gt;+&lt;/span&gt; verificar(String login, String senha): &lt;span class=&quot;hljs-type&quot;&gt;boolean&lt;/span&gt;" style="text;strokeColor=none;fillColor=none;align=left;verticalAlign=top;spacingLeft=4;spacingRight=4;overflow=hidden;rotatable=0;points=[[0,0.5],[1,0.5]];portConstraint=eastwest;whiteSpace=wrap;html=1;" vertex="1" parent="N2yYSC4OEmxXG6KfeuNP-31">
          <mxGeometry y="34" width="200" height="40" as="geometry" />
        </mxCell>
        <mxCell id="N2yYSC4OEmxXG6KfeuNP-34" value="ManipuladorTamanho                      " style="swimlane;fontStyle=1;align=center;verticalAlign=top;childLayout=stackLayout;horizontal=1;startSize=26;horizontalStack=0;resizeParent=1;resizeParentMax=0;resizeLast=0;collapsible=1;marginBottom=0;whiteSpace=wrap;html=1;" vertex="1" parent="1">
          <mxGeometry x="620" y="1210" width="200" height="74" as="geometry" />
        </mxCell>
        <mxCell id="N2yYSC4OEmxXG6KfeuNP-35" value="" style="line;strokeWidth=1;fillColor=none;align=left;verticalAlign=middle;spacingTop=-1;spacingLeft=3;spacingRight=3;rotatable=0;labelPosition=right;points=[];portConstraint=eastwest;strokeColor=inherit;" vertex="1" parent="N2yYSC4OEmxXG6KfeuNP-34">
          <mxGeometry y="26" width="200" height="8" as="geometry" />
        </mxCell>
        <mxCell id="N2yYSC4OEmxXG6KfeuNP-36" value="&lt;span class=&quot;hljs-operator&quot;&gt;+&lt;/span&gt; verificar(String login, String senha): &lt;span class=&quot;hljs-type&quot;&gt;boolean&lt;/span&gt;" style="text;strokeColor=none;fillColor=none;align=left;verticalAlign=top;spacingLeft=4;spacingRight=4;overflow=hidden;rotatable=0;points=[[0,0.5],[1,0.5]];portConstraint=eastwest;whiteSpace=wrap;html=1;" vertex="1" parent="N2yYSC4OEmxXG6KfeuNP-34">
          <mxGeometry y="34" width="200" height="40" as="geometry" />
        </mxCell>
        <mxCell id="N2yYSC4OEmxXG6KfeuNP-22" value="ManipuladorMinuscula           " style="swimlane;fontStyle=1;align=center;verticalAlign=top;childLayout=stackLayout;horizontal=1;startSize=26;horizontalStack=0;resizeParent=1;resizeParentMax=0;resizeLast=0;collapsible=1;marginBottom=0;whiteSpace=wrap;html=1;" vertex="1" parent="1">
          <mxGeometry x="240" y="660" width="200" height="74" as="geometry" />
        </mxCell>
        <mxCell id="N2yYSC4OEmxXG6KfeuNP-23" value="" style="line;strokeWidth=1;fillColor=none;align=left;verticalAlign=middle;spacingTop=-1;spacingLeft=3;spacingRight=3;rotatable=0;labelPosition=right;points=[];portConstraint=eastwest;strokeColor=inherit;" vertex="1" parent="N2yYSC4OEmxXG6KfeuNP-22">
          <mxGeometry y="26" width="200" height="8" as="geometry" />
        </mxCell>
        <mxCell id="N2yYSC4OEmxXG6KfeuNP-24" value="&lt;span class=&quot;hljs-operator&quot;&gt;+&lt;/span&gt; verificar(String login, String senha): &lt;span class=&quot;hljs-type&quot;&gt;boolean&lt;/span&gt;" style="text;strokeColor=none;fillColor=none;align=left;verticalAlign=top;spacingLeft=4;spacingRight=4;overflow=hidden;rotatable=0;points=[[0,0.5],[1,0.5]];portConstraint=eastwest;whiteSpace=wrap;html=1;" vertex="1" parent="N2yYSC4OEmxXG6KfeuNP-22">
          <mxGeometry y="34" width="200" height="40" as="geometry" />
        </mxCell>
        <mxCell id="N2yYSC4OEmxXG6KfeuNP-37" value="" style="endArrow=block;endSize=16;endFill=0;html=1;rounded=0;" edge="1" parent="1" source="N2yYSC4OEmxXG6KfeuNP-5" target="N2yYSC4OEmxXG6KfeuNP-9">
          <mxGeometry width="160" relative="1" as="geometry">
            <mxPoint x="330" y="120" as="sourcePoint" />
            <mxPoint x="490" y="120" as="targetPoint" />
          </mxGeometry>
        </mxCell>
        <mxCell id="N2yYSC4OEmxXG6KfeuNP-38" value="" style="endArrow=block;endSize=16;endFill=0;html=1;rounded=0;" edge="1" parent="1" source="N2yYSC4OEmxXG6KfeuNP-14" target="N2yYSC4OEmxXG6KfeuNP-9">
          <mxGeometry width="160" relative="1" as="geometry">
            <mxPoint x="424" y="110" as="sourcePoint" />
            <mxPoint x="424" y="197" as="targetPoint" />
          </mxGeometry>
        </mxCell>
        <mxCell id="N2yYSC4OEmxXG6KfeuNP-39" value="" style="endArrow=block;endSize=16;endFill=0;html=1;rounded=0;" edge="1" parent="1" source="N2yYSC4OEmxXG6KfeuNP-18" target="N2yYSC4OEmxXG6KfeuNP-9">
          <mxGeometry width="160" relative="1" as="geometry">
            <mxPoint x="243" y="390" as="sourcePoint" />
            <mxPoint x="344" y="321" as="targetPoint" />
          </mxGeometry>
        </mxCell>
        <mxCell id="N2yYSC4OEmxXG6KfeuNP-40" value="" style="endArrow=block;endSize=16;endFill=0;html=1;rounded=0;exitX=0.75;exitY=0;exitDx=0;exitDy=0;" edge="1" parent="1" source="N2yYSC4OEmxXG6KfeuNP-22" target="N2yYSC4OEmxXG6KfeuNP-9">
          <mxGeometry width="160" relative="1" as="geometry">
            <mxPoint x="271" y="540" as="sourcePoint" />
            <mxPoint x="385" y="337" as="targetPoint" />
            <Array as="points">
              <mxPoint x="410" y="490" />
            </Array>
          </mxGeometry>
        </mxCell>
        <mxCell id="N2yYSC4OEmxXG6KfeuNP-41" value="" style="endArrow=block;endSize=16;endFill=0;html=1;rounded=0;exitX=0.75;exitY=0;exitDx=0;exitDy=0;" edge="1" parent="1" source="N2yYSC4OEmxXG6KfeuNP-25" target="N2yYSC4OEmxXG6KfeuNP-9">
          <mxGeometry width="160" relative="1" as="geometry">
            <mxPoint x="356" y="670" as="sourcePoint" />
            <mxPoint x="412" y="337" as="targetPoint" />
            <Array as="points">
              <mxPoint x="481" y="490" />
            </Array>
          </mxGeometry>
        </mxCell>
        <mxCell id="N2yYSC4OEmxXG6KfeuNP-42" value="" style="endArrow=block;endSize=16;endFill=0;html=1;rounded=0;exitX=0.75;exitY=0;exitDx=0;exitDy=0;" edge="1" parent="1" source="N2yYSC4OEmxXG6KfeuNP-28" target="N2yYSC4OEmxXG6KfeuNP-9">
          <mxGeometry width="160" relative="1" as="geometry">
            <mxPoint x="441" y="810" as="sourcePoint" />
            <mxPoint x="426" y="337" as="targetPoint" />
            <Array as="points">
              <mxPoint x="575" y="480" />
            </Array>
          </mxGeometry>
        </mxCell>
        <mxCell id="N2yYSC4OEmxXG6KfeuNP-43" value="" style="endArrow=block;endSize=16;endFill=0;html=1;rounded=0;exitX=0.75;exitY=0;exitDx=0;exitDy=0;" edge="1" parent="1" source="N2yYSC4OEmxXG6KfeuNP-31" target="N2yYSC4OEmxXG6KfeuNP-9">
          <mxGeometry width="160" relative="1" as="geometry">
            <mxPoint x="534" y="950" as="sourcePoint" />
            <mxPoint x="435" y="337" as="targetPoint" />
            <Array as="points">
              <mxPoint x="670" y="440" />
            </Array>
          </mxGeometry>
        </mxCell>
        <mxCell id="N2yYSC4OEmxXG6KfeuNP-44" value="" style="endArrow=block;endSize=16;endFill=0;html=1;rounded=0;exitX=0.75;exitY=0;exitDx=0;exitDy=0;" edge="1" parent="1" source="N2yYSC4OEmxXG6KfeuNP-34" target="N2yYSC4OEmxXG6KfeuNP-9">
          <mxGeometry width="160" relative="1" as="geometry">
            <mxPoint x="621" y="1080" as="sourcePoint" />
            <mxPoint x="441" y="337" as="targetPoint" />
            <Array as="points">
              <mxPoint x="770" y="257" />
            </Array>
          </mxGeometry>
        </mxCell>
        <mxCell id="N2yYSC4OEmxXG6KfeuNP-45" value="" style="html=1;verticalAlign=bottom;endArrow=block;curved=0;rounded=0;" edge="1" parent="1" source="N2yYSC4OEmxXG6KfeuNP-14" target="N2yYSC4OEmxXG6KfeuNP-18">
          <mxGeometry width="80" relative="1" as="geometry">
            <mxPoint x="370" y="510" as="sourcePoint" />
            <mxPoint x="450" y="510" as="targetPoint" />
            <Array as="points">
              <mxPoint x="160" y="500" />
              <mxPoint x="240" y="500" />
            </Array>
          </mxGeometry>
        </mxCell>
        <mxCell id="N2yYSC4OEmxXG6KfeuNP-46" value="" style="html=1;verticalAlign=bottom;endArrow=block;curved=0;rounded=0;" edge="1" parent="1" source="N2yYSC4OEmxXG6KfeuNP-18" target="N2yYSC4OEmxXG6KfeuNP-22">
          <mxGeometry width="80" relative="1" as="geometry">
            <mxPoint x="199" y="490" as="sourcePoint" />
            <mxPoint x="228" y="540" as="targetPoint" />
            <Array as="points">
              <mxPoint x="240" y="630" />
              <mxPoint x="340" y="630" />
            </Array>
          </mxGeometry>
        </mxCell>
        <mxCell id="N2yYSC4OEmxXG6KfeuNP-47" value="" style="html=1;verticalAlign=bottom;endArrow=block;curved=0;rounded=0;" edge="1" parent="1" source="N2yYSC4OEmxXG6KfeuNP-22" target="N2yYSC4OEmxXG6KfeuNP-25">
          <mxGeometry width="80" relative="1" as="geometry">
            <mxPoint x="278" y="614" as="sourcePoint" />
            <mxPoint x="322" y="670" as="targetPoint" />
            <Array as="points">
              <mxPoint x="340" y="770" />
              <mxPoint x="430" y="770" />
            </Array>
          </mxGeometry>
        </mxCell>
        <mxCell id="N2yYSC4OEmxXG6KfeuNP-48" value="" style="html=1;verticalAlign=bottom;endArrow=block;curved=0;rounded=0;" edge="1" parent="1" source="N2yYSC4OEmxXG6KfeuNP-28" target="N2yYSC4OEmxXG6KfeuNP-31">
          <mxGeometry width="80" relative="1" as="geometry">
            <mxPoint x="374" y="744" as="sourcePoint" />
            <mxPoint x="418" y="810" as="targetPoint" />
            <Array as="points">
              <mxPoint x="530" y="1040" />
              <mxPoint x="620" y="1040" />
            </Array>
          </mxGeometry>
        </mxCell>
        <mxCell id="N2yYSC4OEmxXG6KfeuNP-49" value="" style="html=1;verticalAlign=bottom;endArrow=block;curved=0;rounded=0;" edge="1" parent="1" source="N2yYSC4OEmxXG6KfeuNP-31" target="N2yYSC4OEmxXG6KfeuNP-34">
          <mxGeometry width="80" relative="1" as="geometry">
            <mxPoint x="566" y="1024" as="sourcePoint" />
            <mxPoint x="604" y="1080" as="targetPoint" />
            <Array as="points">
              <mxPoint x="620" y="1180" />
              <mxPoint x="720" y="1180" />
            </Array>
          </mxGeometry>
        </mxCell>
        <mxCell id="N2yYSC4OEmxXG6KfeuNP-50" value="" style="html=1;verticalAlign=bottom;endArrow=block;curved=0;rounded=0;" edge="1" parent="1" source="N2yYSC4OEmxXG6KfeuNP-25" target="N2yYSC4OEmxXG6KfeuNP-28">
          <mxGeometry width="80" relative="1" as="geometry">
            <mxPoint x="350" y="744" as="sourcePoint" />
            <mxPoint x="441" y="810" as="targetPoint" />
            <Array as="points">
              <mxPoint x="430" y="900" />
              <mxPoint x="530" y="900" />
            </Array>
          </mxGeometry>
        </mxCell>
      </root>
    </mxGraphModel>
  </diagram>
</mxfile>
